<svg  version="1.0" xmlns="http://www.w3.org/2000/svg"  width="1350.000000pt" height="1350.000000pt" viewBox="0 0 1350.000000 1350.000000"  preserveAspectRatio="xMidYMid meet">  <g transform="translate(0.000000,1350.000000) scale(0.100000,-0.100000)" fill="#006064" stroke="none"> <path d="M0 6750 l0 -6750 6750 0 6750 0 0 6750 0 6750 -6750 0 -6750 0 0 -6750z m6153 6220 c3 -3 -10 -38 -30 -78 -40 -84 -69 -107 -147 -118 -76 -10 -93 -19 -115 -61 -10 -21 -42 -57 -70 -81 -53 -45 -95 -106 -107 -157 -8 -34 -81 -108 -136 -136 -21 -11 -38 -24 -38 -29 0 -5 -20 -32 -45 -60 -24 -28 -51 -63 -59 -79 -15 -28 -80 -91 -94 -91 -4 0 -20 -12 -35 -26 -23 -21 -27 -32 -22 -54 5 -21 1 -33 -16 -49 -13 -12 -26 -21 -29 -21 -12 0 -30 -50 -30 -83 0 -22 -17 -57 -55 -114 -66 -98 -105 -195 -105 -262 0 -41 -6 -57 -36 -96 -46 -61 -57 -120 -59 -315 0 -85 -6 -202 -13 -260 -8 -74 -9 -141 -3 -228 8 -102 7 -130 -5 -165 -9 -24 -19 -102 -23 -182 -6 -92 -14 -154 -25 -181 -16 -38 -20 -41 -78 -53 -110 -22 -132 -50 -198 -241 -23 -69 -54 -156 -68 -195 -24 -65 -26 -81 -25 -235 1 -182 26 -379 65 -498 12 -37 41 -94 64 -127 49 -71 75 -79 121 -41 31 26 42 48 62 121 12 46 54 95 80 95 12 0 27 -15 38 -37 l20 -38 -24 -48 c-14 -27 -22 -54 -19 -62 3 -8 -6 -24 -19 -37 -14 -13 -25 -32 -25 -43 0 -15 -10 -24 -32 -30 -26 -8 -40 -22 -63 -66 -16 -31 -46 -76 -65 -100 -52 -65 -62 -93 -71 -207 -6 -84 -12 -111 -34 -147 -35 -60 -67 -75 -162 -75 -131 0 -177 -44 -209 -197 -8 -37 -21 -75 -30 -84 -8 -9 -50 -29 -92 -44 -82 -30 -188 -81 -237 -114 -52 -36 -91 -25 -217 63 -35 24 -92 58 -127 76 -48 25 -98 68 -205 175 -77 78 -168 173 -201 211 -71 81 -186 192 -243 234 -22 16 -43 33 -47 39 -3 6 -34 30 -68 53 -34 23 -92 70 -129 104 -37 35 -81 70 -97 78 -47 25 -224 73 -371 101 -172 34 -250 57 -377 111 -143 62 -220 71 -422 50 -182 -20 -309 -52 -442 -112 -53 -24 -99 -44 -103 -44 -3 0 -34 -13 -68 -29 -172 -78 -201 -91 -214 -91 -8 0 -15 18 -20 45 -3 25 -4 996 -2 2158 4 1966 5 2114 21 2144 29 55 40 58 312 64 309 7 5311 6 5318 -1z m6741 -10 c27 -9 42 -22 58 -53 l22 -42 -3 -6139 c-2 -5257 -4 -6143 -16 -6167 -8 -15 -29 -32 -47 -38 -41 -15 -1542 -28 -1603 -14 l-40 9 3 95 c3 89 1 99 -27 152 -35 67 -175 242 -227 285 -20 17 -74 52 -120 77 -90 51 -104 71 -124 177 -7 33 -22 64 -49 96 -48 59 -57 76 -75 149 -8 32 -24 91 -35 131 -18 70 -24 134 -36 402 -5 104 -25 212 -54 295 -6 17 -22 64 -35 105 -31 94 -75 199 -113 267 -213 388 -276 475 -490 679 -81 77 -184 171 -228 207 -44 37 -129 109 -189 159 -59 51 -143 119 -185 151 -42 32 -107 86 -145 120 -154 138 -195 171 -344 274 -135 94 -171 139 -217 278 -32 93 -75 181 -122 246 -18 26 -50 76 -71 112 -21 36 -60 94 -86 129 -26 35 -61 86 -79 115 -68 110 -180 264 -206 282 -39 28 -65 91 -57 135 10 54 135 286 199 368 44 58 196 176 367 287 164 106 330 266 411 396 23 39 78 140 122 225 86 171 110 202 166 219 52 15 153 132 196 227 32 70 79 212 109 330 9 34 35 108 57 165 l42 103 2 170 c1 94 8 208 15 253 12 76 12 89 -10 187 -25 112 -24 136 13 261 12 42 72 157 133 255 8 14 25 45 36 70 11 25 36 62 54 82 19 21 36 53 39 75 13 75 25 109 50 143 20 27 25 45 25 95 0 33 6 85 14 115 20 78 34 189 29 232 -3 20 3 62 12 95 9 32 25 99 36 148 26 127 82 308 121 390 32 69 33 73 33 210 0 77 4 167 9 200 6 48 5 69 -9 100 -13 31 -15 56 -10 110 6 66 4 74 -29 140 -20 39 -36 79 -36 91 0 11 -9 29 -21 40 -14 13 -18 25 -14 43 8 31 -14 122 -34 139 -8 7 -34 17 -56 23 -75 20 -103 45 -121 107 -14 48 -15 66 -5 117 13 63 9 84 -22 126 -10 15 -23 53 -27 85 -5 33 -13 77 -19 99 -6 22 -11 57 -11 77 0 20 -7 63 -15 95 -8 32 -19 89 -24 127 -5 37 -17 76 -25 85 -9 10 -16 27 -16 38 0 22 -23 47 -34 36 -13 -13 -75 60 -87 103 -8 24 -17 44 -22 44 -4 0 -16 -13 -25 -30 -31 -54 -70 -41 -174 57 -61 57 -80 61 -119 26 -30 -25 -66 -5 -129 72 -33 41 -60 76 -60 79 0 10 223 11 2001 10 1359 -1 1774 -4 1803 -14z m-3540 -212 c16 -23 22 -78 9 -78 -27 2 -81 79 -66 94 13 13 43 5 57 -16z m-2488 -727 c31 -5 40 -11 42 -29 2 -14 -4 -29 -15 -38 -17 -13 -17 -15 0 -25 23 -13 22 -56 -2 -68 -10 -6 -21 -8 -24 -4 -4 3 -18 -2 -31 -11 -14 -8 -31 -13 -39 -10 -20 7 -31 -14 -17 -31 16 -19 1 -19 -24 0 -39 29 -85 13 -87 -29 0 -20 -1 -20 -11 2 -14 27 -48 30 -48 3 0 -10 -7 -24 -15 -31 -8 -7 -15 -20 -15 -29 0 -9 -5 -33 -11 -53 -8 -30 -15 -38 -33 -38 -13 0 -29 7 -37 16 -11 14 -14 13 -29 -6 -16 -21 -18 -21 -53 -6 -31 12 -37 20 -37 45 0 16 5 33 10 36 6 4 10 18 10 33 -1 176 17 242 67 242 13 0 36 8 50 17 15 10 54 21 87 25 84 10 125 18 155 34 24 12 27 11 46 -12 14 -17 35 -29 61 -33z m-193 -1113 c-4 -25 -10 -38 -20 -38 -13 0 -13 3 -3 15 7 8 10 25 6 38 -3 13 -3 27 1 31 13 13 20 -9 16 -46z m-713 -473 c3 -11 13 -32 23 -47 17 -25 17 -31 4 -85 -10 -38 -12 -64 -6 -75 6 -10 6 -41 2 -70 -4 -29 -6 -57 -5 -62 2 -4 -3 -15 -10 -23 -10 -12 -9 -17 5 -28 14 -10 17 -28 17 -91 0 -43 4 -85 9 -93 6 -9 4 -32 -5 -60 -17 -57 -17 -58 0 -64 10 -4 13 -1 9 9 -3 9 2 14 16 14 25 0 27 -16 4 -60 -32 -66 -23 -120 22 -120 19 0 26 -7 31 -27 12 -57 16 -64 41 -74 13 -5 38 -9 54 -9 17 0 29 -5 29 -12 0 -24 -17 -39 -41 -37 -66 6 -77 -15 -50 -93 14 -43 19 -48 30 -35 7 9 19 13 26 11 21 -9 26 -32 8 -49 -14 -15 -17 -14 -33 0 -17 15 -19 14 -31 -19 -16 -43 -52 -65 -79 -48 -29 18 -48 15 -66 -12 -8 -14 -21 -23 -28 -20 -19 7 -36 50 -36 89 0 19 -5 37 -10 40 -11 7 -14 0 -25 -49 -5 -22 -9 -26 -18 -17 -14 14 -94 15 -102 0 -5 -7 -13 -5 -24 5 -13 12 -24 13 -56 5 -83 -21 -79 -22 -98 21 -27 59 -57 50 -57 -18 0 -15 -6 -39 -14 -53 -7 -14 -10 -32 -6 -40 12 -23 -17 -79 -41 -79 -20 0 -21 4 -17 43 4 30 0 54 -12 78 -14 26 -16 39 -7 54 6 11 12 83 15 160 2 92 8 151 18 172 8 17 14 37 14 45 0 7 6 22 14 33 7 11 35 74 61 140 30 75 62 137 86 167 22 26 39 57 39 70 0 13 9 38 20 56 11 18 20 43 20 56 0 13 7 29 15 36 13 11 18 10 30 -6 15 -19 15 -19 30 0 9 12 15 41 15 76 0 69 15 117 39 125 10 3 26 24 36 46 11 24 23 38 31 35 8 -3 16 -1 20 5 10 16 38 6 44 -16z m231 -675 c5 -59 2 -75 -17 -75 -13 0 -20 8 -22 28 -2 16 -1 35 2 43 6 16 36 19 37 4z m1808 -110 c-1 -27 4 -57 11 -65 10 -12 10 -15 -4 -15 -13 0 -15 -6 -10 -27 12 -52 23 -63 54 -59 16 2 38 13 47 25 32 38 41 14 44 -116 2 -84 -1 -126 -10 -137 -21 -26 -144 -36 -183 -15 -10 5 -67 5 -143 -2 -106 -9 -132 -14 -162 -35 -43 -29 -49 -29 -62 -5 -8 14 -6 23 9 36 11 10 22 25 25 35 3 9 18 23 33 31 15 7 42 26 60 41 22 19 45 28 70 29 72 2 120 29 72 42 -42 11 -14 150 36 177 17 10 28 9 52 -4 17 -9 33 -16 35 -16 8 0 -5 50 -14 56 -14 8 -10 36 8 56 26 29 33 22 32 -32z m141 -73 c0 -1 -9 -10 -20 -20 -19 -16 -20 -16 -20 3 0 13 7 20 20 20 11 0 20 -1 20 -3z m-2788 -457 c-6 -41 -12 -38 -12 6 0 19 4 33 8 30 5 -3 7 -19 4 -36z m-112 -242 c0 -5 6 -24 14 -41 8 -18 17 -45 19 -62 8 -40 -12 -105 -31 -105 -25 0 -52 31 -52 58 0 23 17 127 26 160 4 15 24 7 24 -10z m1321 -12 c10 -35 0 -96 -16 -102 -13 -5 -125 24 -125 32 0 3 7 19 16 35 13 25 18 28 30 18 13 -10 20 -7 42 19 32 36 43 36 53 -2z m-1191 -24 c0 -7 -5 -22 -11 -33 -8 -16 -7 -23 7 -33 12 -9 14 -15 6 -20 -14 -8 -16 -75 -3 -95 12 -18 47 1 57 31 6 20 7 21 20 4 14 -19 34 -14 34 9 0 7 -10 15 -22 17 -20 3 -23 9 -23 43 0 33 4 41 22 43 17 3 22 -2 25 -25 2 -15 10 -29 18 -30 103 -13 111 -25 58 -80 -34 -35 -62 -42 -72 -18 -9 24 -26 17 -37 -15 -12 -32 -38 -40 -58 -16 -6 7 -22 11 -34 9 -37 -7 -60 22 -51 66 4 20 6 45 5 56 -5 57 0 100 16 117 16 18 18 18 30 2 7 -10 13 -24 13 -32z m443 -2221 c21 -25 58 -71 83 -101 25 -30 60 -78 79 -106 19 -28 41 -57 51 -65 9 -8 42 -52 74 -99 31 -47 83 -123 115 -170 58 -83 81 -117 264 -389 50 -73 108 -157 130 -185 72 -94 71 -137 -4 -165 -22 -8 -80 -39 -130 -69 -89 -53 -155 -76 -155 -53 0 6 -8 11 -18 11 -31 0 -89 52 -112 100 -12 25 -25 53 -31 62 -5 10 -9 26 -9 37 0 10 -7 21 -15 25 -8 3 -15 17 -15 31 0 14 -7 28 -15 31 -9 4 -15 19 -15 40 0 27 -5 37 -24 45 -27 13 -39 42 -23 58 13 13 -16 49 -49 62 -18 6 -24 21 -34 81 -13 87 -75 290 -101 334 -23 38 -65 174 -129 421 -20 78 -25 125 -14 136 11 11 57 -23 97 -72z m1007 -1561 c0 -6 11 -22 25 -36 58 -57 94 -147 95 -231 l0 -53 -64 0 c-80 0 -88 9 -86 97 2 92 2 101 1 158 0 28 1 56 4 63 5 15 25 16 25 2z m1245 -555 c11 -7 32 -15 48 -19 15 -4 27 -13 27 -21 0 -8 11 -22 25 -31 55 -36 11 -72 -95 -76 -71 -3 -72 -3 -93 -40 l-21 -36 21 -54 c11 -29 26 -78 33 -110 12 -52 11 -60 -9 -101 -26 -53 -84 -92 -158 -106 -26 -5 -68 -16 -93 -25 -76 -25 -154 -30 -169 -12 -8 9 -26 16 -42 16 -29 0 -46 14 -29 25 5 3 7 25 4 49 -6 44 7 86 28 86 6 0 19 7 28 15 15 14 21 13 61 -4 41 -19 45 -19 72 -3 16 9 36 27 44 40 14 20 14 27 -2 70 -24 68 -29 102 -16 102 18 0 211 197 211 215 0 8 9 24 20 35 17 17 24 18 52 8 18 -6 42 -17 53 -23z m-727 -641 c49 -8 62 -26 38 -53 -11 -12 -26 -16 -46 -13 -18 3 -38 -2 -48 -10 -20 -17 -112 -13 -112 6 0 21 84 86 105 81 11 -2 40 -7 63 -11z m-569 -614 c16 0 21 -4 18 -14 -3 -8 5 -29 17 -47 l23 -32 -24 -41 c-23 -41 -31 -60 -39 -84 -2 -8 -11 -11 -24 -7 -15 5 -22 0 -29 -18 -5 -13 -21 -33 -35 -45 -28 -22 -33 -38 -13 -45 6 -3 1 -6 -12 -6 -17 -1 -22 -5 -17 -17 4 -11 2 -15 -8 -11 -8 3 -20 -1 -26 -9 -7 -8 -9 -14 -4 -15 5 0 22 -2 39 -4 16 -2 36 2 45 9 19 17 167 29 176 14 3 -5 15 -8 25 -5 23 6 39 -19 39 -62 0 -16 4 -32 9 -35 5 -3 7 -15 4 -27 -8 -29 12 -39 74 -39 43 0 53 -3 58 -20 9 -27 19 -25 34 6 10 23 16 26 46 21 23 -4 38 -1 46 9 7 8 17 13 23 11 6 -3 19 0 29 5 23 12 47 -6 47 -36 0 -12 4 -26 10 -32 5 -5 10 -21 9 -34 0 -14 -2 -115 -3 -225 -2 -202 -7 -246 -29 -242 -8 1 -11 -9 -9 -30 2 -18 -1 -40 -6 -50 -6 -10 -6 -27 0 -45 11 -32 1 -50 -40 -71 -16 -7 -38 -38 -58 -77 -19 -36 -40 -74 -49 -85 -65 -85 -61 -82 -131 -89 -127 -13 -175 -1 -283 71 -53 36 -100 70 -106 77 -11 14 -88 49 -222 101 -51 19 -114 48 -140 64 -27 16 -68 32 -92 35 -24 3 -44 6 -45 8 -23 39 -23 58 -1 104 14 27 25 61 25 76 0 15 5 30 11 34 19 11 49 87 49 126 0 20 -5 49 -11 65 -9 23 -7 30 9 43 10 9 27 33 37 54 10 21 34 53 52 71 34 33 44 70 30 111 -6 16 -1 30 18 53 35 40 75 117 75 142 0 27 42 41 101 33 27 -4 50 -3 50 2 8 57 6 66 -13 84 -19 18 -20 20 -4 26 12 5 16 14 12 30 -3 12 -2 25 3 28 16 10 41 -5 41 -25 0 -27 12 -24 44 10 23 24 28 36 23 60 -8 38 13 54 63 46 19 -2 46 -5 59 -5z m-779 -213 c0 -26 -26 -49 -50 -45 -28 3 -40 36 -18 49 21 14 68 11 68 -4z m-159 -340 c-13 -13 -26 -3 -16 12 3 6 11 8 17 5 6 -4 6 -10 -1 -17z m9 -39 c18 -11 18 -14 3 -30 -23 -25 -11 -32 50 -29 44 1 56 -2 79 -24 39 -36 46 -71 20 -98 -20 -22 -20 -22 -1 -46 24 -30 24 -46 -1 -78 -11 -14 -20 -31 -20 -38 0 -6 -11 -22 -25 -35 -13 -12 -23 -32 -22 -43 1 -14 -5 -23 -18 -25 -11 -2 -28 -11 -38 -20 -28 -25 -142 -33 -202 -15 -27 9 -55 22 -61 29 -6 8 -22 13 -35 12 -24 -3 -24 -2 -20 67 2 39 10 79 17 90 8 11 14 32 14 47 0 18 6 29 20 33 23 7 60 64 60 92 0 11 9 32 21 47 11 14 17 31 13 37 -20 32 102 54 146 27z m210 -73 c0 -8 -7 -15 -15 -15 -8 0 -15 7 -15 15 0 8 7 15 15 15 8 0 15 -7 15 -15z"/> <path d="M10220 11560 c0 -5 11 -10 25 -10 14 0 25 5 25 10 0 6 -11 10 -25 10 -14 0 -25 -4 -25 -10z"/> <path d="M7887 9464 c-18 -18 -3 -25 48 -22 30 2 56 8 58 13 2 11 -95 20 -106 9z"/> <path d="M6590 3054 c0 -14 4 -23 10 -19 6 3 10 15 10 26 0 10 -4 19 -10 19 -5 0 -10 -12 -10 -26z"/> <path d="M6471 2778 c-8 -26 -22 -38 -60 -56 -41 -18 -50 -27 -54 -54 -4 -18 -13 -67 -21 -108 -8 -41 -15 -110 -16 -152 0 -69 2 -79 21 -89 23 -12 82 -6 123 13 45 20 74 76 77 148 5 137 0 194 -23 230 -12 19 -21 47 -19 62 3 39 -16 43 -28 6z"/> </g> </svg>